<svg id="arrow-svg" xmlns="http://www.w3.org/2000/svg" viewBox="0 0 54 54"><title>arrow</title><path id="arrow-path2" d="M55.5,28.5a27,27,0,1,0-27,27A27,27,0,0,0,55.5,28.5Zm-35.1,6c-0.1,0-.2.1-0.3,0.1a3.76,3.76,0,0,1-1.1,0,3,3,0,0,1-.7-0.5,1.3,1.3,0,0,1-.3-0.9,2.35,2.35,0,0,1,.7-1.4,2.65,2.65,0,0,1,.6-0.5c1.4-1.4,2.8-2.7,4.3-4.1,1.7-1.6,3.4-3.2,5-4.8l5.2,4.9c1.5,1.4,2.9,2.8,4.4,4.1,0.1,0.1.2,0.1,0.3,0.2a0.69,0.69,0,0,1,.3.4,2.74,2.74,0,0,0,.4.5,0.9,0.9,0,0,1,.1.5,1.49,1.49,0,0,1-.2.9,1,1,0,0,1-.7.5,1.78,1.78,0,0,1-1.1.1,2.33,2.33,0,0,1-1.2-.8l-0.3-.3c-2.4-2.2-4.8-4.4-7.1-6.7C28.5,26.9,20.4,34.5,20.4,34.5Z" transform="translate(-1.5 -1.5)"/><path id="arrow-path1" d="M18.1,33.45a1.58,1.58,0,0,0,1.61,1.29,2.92,2.92,0,0,0,.9-0.21c0.1,0,8-7.67,8-7.67l7.16,6.54a2.8,2.8,0,0,0,1.81,1.18h0.5a1.45,1.45,0,0,0,1.19-1.21v-0.6a1.69,1.69,0,0,0-.2-0.5c0-.1-3.53-3.37-10.49-9.81-3.47,3.33-6.54,6.26-9.32,8.88A2.81,2.81,0,0,0,18,33.15v0.3h0.1Z" transform="translate(-1.5 -1.5)"/></svg>