<svg id="facebook" xmlns="http://www.w3.org/2000/svg" viewBox="0 0 192.3 412"><title>facebook</title><g id="facebook-path"><path class="facebook-path" d="M223.22,71.23c16.07-15.3,38.92-20.47,60.48-21.11,22.8-.21,45.59-0.08,68.39-0.07q0.13,36.08,0,72.16c-14.73,0-29.48,0-44.21,0-9.34-.58-18.94,6.5-20.64,15.76-0.22,16.09-.08,32.2-0.07,48.29,21.61,0.09,43.22,0,64.83.05-1.58,23.28-4.47,46.46-7.86,69.54-19.09.18-38.19,0-57.27,0.1-0.17,68.67.09,137.33-.13,206-28.35.12-56.72-.05-85.07,0.08-0.54-68.67,0-137.38-.29-206.07-13.83-.14-27.67.1-41.5-0.12,0.05-23.09,0-46.17,0-69.25,13.82-.17,27.65,0,41.48-0.1,0.42-22.44-.42-44.91.44-67.33C203.18,101.38,209.94,83.49,223.22,71.23Z" transform="translate(-159.85 -50)"/></g></svg>