<svg id="instagram" xmlns="http://www.w3.org/2000/svg" viewBox="0 0 535.29 536.17"><title>instagram</title><g id="instagram-path"><path d="M767.65,665.07h0V451.84H644.48a154,154,0,0,1,14.82,66c0,85.7-70,155.41-155.94,155.41S347.42,603.57,347.42,517.87a154.06,154.06,0,0,1,14.82-66H232.36V665.07c0,56.8,46.37,103,103.36,103H664.28C721.28,768.08,767.65,721.87,767.65,665.07Z" transform="translate(-232.36 -231.91)"/><path d="M568.1,517.87a64.73,64.73,0,1,0-64.73,64.52A64.7,64.7,0,0,0,568.1,517.87Z" transform="translate(-232.36 -231.91)"/><path d="M664.28,231.91H335.72c-57,0-103.36,46.21-103.36,103v56.32H413.12a155.84,155.84,0,0,1,180.48,0h174V334.93C767.65,278.12,721.28,231.91,664.28,231.91ZM720,343a18.26,18.26,0,0,1-18.24,18.18H645.4A18.26,18.26,0,0,1,627.16,343V286.84a18.26,18.26,0,0,1,18.24-18.18h56.36A18.26,18.26,0,0,1,720,286.84V343Z" transform="translate(-232.36 -231.91)"/></g></svg>