<svg id="lock-svg" xmlns="http://www.w3.org/2000/svg" viewBox="0 0 7.71 8.49"><title>lock</title><path id="lock-path1" d="M7.27,7.74a0.72,0.72,0,0,1-.45.19A0.73,0.73,0,0,1,6.3,7.74l0-.27a0.31,0.31,0,0,0,.33-0.29A0.3,0.3,0,0,0,6.29,7l0-.46c0-.88,0-0.92,0-1A2,2,0,0,0,5.22,4a2,2,0,0,0-2.16.25,2.74,2.74,0,0,0-.64,1.8,10.08,10.08,0,0,0-.06,1.59c0,0.53,0,.75,0,1.57,0,0.61,0,1.09,0,1.4H1.6c0-.51,0-1.26,0-2.18,0-.7,0-1,0-1.27C1.62,5.51,1.64,4.66,2.15,4a2.89,2.89,0,0,1,2-1,3,3,0,0,1,2.21.83,4.25,4.25,0,0,1,.89,2.65A8.54,8.54,0,0,1,7.27,7.74Z" transform="translate(-0.69 -3)"/><path id="lock-path2" d="M8,6.72H1.13a0.44,0.44,0,0,0-.44.44V11a0.44,0.44,0,0,0,.44.44H8A0.44,0.44,0,0,0,8.4,11V7.16A0.44,0.44,0,0,0,8,6.72ZM4.87,9.2V10a0.27,0.27,0,1,1-.54,0V9.19A0.65,0.65,0,1,1,4.87,9.2Z" transform="translate(-0.69 -3)"/></svg>