<svg id="twitter" xmlns="http://www.w3.org/2000/svg" viewBox="0 0 471.9 384"><title>twitter</title><path id="twitter-path" d="M492,109.5a195.74,195.74,0,0,1-55.6,15.3A97.16,97.16,0,0,0,479,71.2a192.38,192.38,0,0,1-61.5,23.5A96.79,96.79,0,0,0,250,160.9a94.79,94.79,0,0,0,2.5,22.1A274.37,274.37,0,0,1,52.9,81.7,97,97,0,0,0,83,211.1,94.56,94.56,0,0,1,39,199v1.2a96.9,96.9,0,0,0,77.7,95,97.46,97.46,0,0,1-25.5,3.4A91.34,91.34,0,0,1,73,296.8a97,97,0,0,0,90.5,67.3A194.11,194.11,0,0,1,43.2,405.6a196.25,196.25,0,0,1-23.1-1.4A270.62,270.62,0,0,0,168.3,448C346.6,448,444,300.3,444,172.2c0-4.2-.1-8.4-0.3-12.5A197.08,197.08,0,0,0,492,109.5Z" transform="translate(-20.1 -64)"/></svg>